<svg width="82" height="82" viewBox="0 0 82 82" fill="none" xmlns="http://www.w3.org/2000/svg">
<circle cx="41" cy="41" r="41" fill="#3B2416"/>
<path d="M42.6516 25.8589C42.5966 25.8957 42.5438 25.9357 42.4934 25.9787C42.2537 26.1752 42.014 26.3813 41.803 26.597L41.7599 26.645C41.5729 26.8654 41.4003 27.0955 41.2325 27.3304L41.2038 27.3735C41.1271 27.5077 41.0552 27.6419 40.9832 27.7905L40.9449 27.872C40.8821 27.9905 40.8292 28.1139 40.7867 28.241C40.7387 28.3848 40.6956 28.5286 40.662 28.6724L40.6093 28.8881C40.5958 28.9578 40.5862 29.0282 40.5805 29.099V29.1517C40.54 29.4507 40.54 29.7538 40.5805 30.0528V30.1343C40.5948 30.2473 40.6156 30.3593 40.6429 30.4698V30.5273C40.6716 30.628 40.7004 30.7287 40.7244 30.791C40.7894 30.9908 40.8745 31.1835 40.9784 31.3661L41.0312 31.462C41.1322 31.6291 41.2444 31.7892 41.3668 31.9413L41.4051 31.9844L41.4531 32.0372C41.5508 32.1455 41.6548 32.2479 41.7647 32.3439L41.8126 32.3823C41.8999 32.4559 41.9911 32.5247 42.0859 32.5884C42.2375 32.6918 42.3979 32.7816 42.5653 32.8568L42.6228 32.8808C42.7124 32.9199 42.8055 32.9504 42.9009 32.9718H42.9249C43.0214 32.9918 43.1211 32.9906 43.2172 32.9682C43.3132 32.9459 43.4032 32.903 43.481 32.8424C43.5546 32.7848 43.6153 32.7124 43.659 32.6298C43.7028 32.5472 43.7287 32.4563 43.7351 32.3631V32.1714C43.7351 32.1139 43.7351 32.0372 43.7351 31.9461L43.7734 31.5579L43.8262 31.2607C43.8597 31.1088 43.9095 30.9609 43.9748 30.8197C43.9988 30.7766 44.0227 30.7335 44.0419 30.6951L44.0755 30.652L44.1282 30.5849L44.2193 30.4938L44.3439 30.4027H44.3727L44.5357 30.2973C44.6131 30.2565 44.6883 30.2117 44.761 30.1631C44.8651 30.1222 44.9647 30.0708 45.0583 30.0097L45.2261 29.9234L45.4993 29.7796L46.0555 29.4729C46.5692 29.1548 47.0301 28.7586 47.4218 28.2986C47.8354 27.8142 48.1512 27.2542 48.3519 26.6497C48.5383 26.0929 48.6164 25.5056 48.582 24.9194C48.553 24.4255 48.4429 23.9397 48.256 23.4815C48.0009 22.8505 47.6 22.2888 47.0862 21.8423C46.9542 21.7272 46.8131 21.623 46.6643 21.5307L46.602 21.4924C46.5257 21.4429 46.4455 21.3997 46.3623 21.363C46.2705 21.3266 46.1719 21.3107 46.0733 21.3165C45.9747 21.3223 45.8786 21.3496 45.7918 21.3965C45.703 21.4456 45.6267 21.5143 45.5685 21.5974C45.5104 21.6804 45.472 21.7757 45.4562 21.8758L45.4226 22.0724C45.4226 22.1203 45.4226 22.1826 45.3891 22.2545L45.3459 22.4702C45.2639 22.892 45.1501 23.307 45.0055 23.7116C44.9369 23.9016 44.8502 24.0846 44.7466 24.258C44.6596 24.4002 44.5567 24.5321 44.4398 24.651C44.3185 24.7734 44.1888 24.8871 44.0515 24.9913C43.8981 25.1064 43.7255 25.2262 43.5337 25.346L43.2413 25.4898L43.1646 25.5378L43.0447 25.6144L42.7906 25.787L42.6516 25.8589ZM43.0016 17.4087C43.1663 18.1979 43.1793 19.0112 43.0399 19.8052C42.8811 20.6728 42.5555 21.5013 42.0811 22.2449C41.6347 22.9562 41.0799 23.5934 40.4367 24.1334L39.7272 24.675L39.3772 24.9338L39.1423 25.1016C39.028 25.2061 38.9026 25.2977 38.7683 25.3748C38.6707 25.4619 38.5682 25.5435 38.4615 25.6192C38.3992 25.6815 38.3273 25.7439 38.2554 25.8014L38.2026 25.8445C38.1559 25.8983 38.1063 25.9495 38.054 25.9979C38.054 25.9979 38.0252 26.0266 38.0109 26.0458L37.8862 26.204C37.8675 26.2434 37.8467 26.2818 37.8239 26.319L37.7855 26.3861V26.4341C37.7855 26.4964 37.7472 26.5539 37.7184 26.621C37.6465 26.8564 37.6015 27.0992 37.5842 27.3447V27.7857L37.565 28.3657C37.565 28.5047 37.565 28.6245 37.5938 28.7108L37.6273 28.9744C37.6396 29.0735 37.6306 29.1741 37.601 29.2694C37.5714 29.3648 37.5219 29.4528 37.4557 29.5276C37.3895 29.6024 37.3082 29.6622 37.2171 29.7032C37.126 29.7442 37.0273 29.7653 36.9274 29.7652H36.8746C36.7499 29.7532 36.6265 29.7308 36.5055 29.6981H36.4336C36.1863 29.6326 35.9456 29.5443 35.7145 29.4345C35.5698 29.3655 35.4289 29.2887 35.2926 29.2045L35.2255 29.1661C35.0588 29.061 34.8987 28.9457 34.746 28.821L34.6597 28.7539L34.6166 28.7156C34.4222 28.5358 34.2396 28.3437 34.0701 28.1404L33.9838 28.0254C33.8104 27.8027 33.6594 27.5635 33.5331 27.3112C33.4852 27.2201 33.4276 27.0955 33.3701 26.9613L33.3366 26.8798C33.2802 26.739 33.2322 26.5949 33.1927 26.4484L33.1592 26.3286C33.0448 25.9327 32.9835 25.5233 32.977 25.1112V25.0105C32.9721 24.9195 32.9721 24.8283 32.977 24.7373L33.0058 24.4306C33.0058 24.2244 33.0537 24.0183 33.0921 23.8074C33.1226 23.63 33.1675 23.4552 33.2263 23.285L33.2646 23.1604C33.3318 22.9495 33.4037 22.7482 33.4804 22.5469L33.5044 22.4941C33.6817 22.1347 33.8831 21.7752 34.094 21.4301L34.1324 21.3726C34.3913 21.0275 34.6741 20.6919 34.9666 20.3708C35.0234 20.3049 35.0843 20.2424 35.1488 20.1839L35.3261 20.0161C35.4268 19.9203 35.5371 19.8244 35.6473 19.7237L35.8391 19.5512L35.8823 19.5128L36.2946 19.1821C36.5486 18.9664 36.774 18.7555 36.9753 18.5542C37.1565 18.3696 37.3247 18.1726 37.4787 17.9647C37.6299 17.756 37.757 17.5309 37.8574 17.2937C37.9744 17.0137 38.0643 16.7232 38.1259 16.4261C38.2493 15.8129 38.3263 15.1912 38.356 14.5664C38.356 14.4609 38.356 14.3507 38.356 14.25C38.356 14.1494 38.356 14.0439 38.356 13.9673V13.694C38.3584 13.5854 38.3857 13.4788 38.4358 13.3823C38.4859 13.2859 38.5575 13.2023 38.645 13.1379C38.7326 13.0735 38.8338 13.0301 38.9408 13.011C39.0478 12.9919 39.1577 12.9977 39.2621 13.0278C39.3787 13.0585 39.4925 13.0985 39.6025 13.1476L39.6936 13.186C39.9114 13.2812 40.1214 13.3934 40.3216 13.5215C41.1088 14.0261 41.7658 14.7092 42.2393 15.5154C42.5965 16.1 42.8541 16.7398 43.0016 17.4087ZM63.7651 44.6238C64.0563 43.4533 64.077 42.2319 63.8257 41.0522C63.5744 39.8725 63.0577 38.7655 62.3147 37.8152C61.5716 36.8649 60.6219 36.0963 59.5375 35.5677C58.4531 35.0391 57.2625 34.7644 56.0561 34.7644H24.0886C23.8048 34.764 23.5239 34.8215 23.2631 34.9334C23.0022 35.0453 22.767 35.2092 22.5718 35.4152C22.3765 35.6212 22.2254 35.8648 22.1276 36.1312C22.0299 36.3976 21.9875 36.6811 22.0032 36.9645C22.2544 40.7723 22.9068 44.5429 23.9496 48.2138C24.7332 50.9683 26.2767 53.4467 28.4034 55.3651H25.6515C25.0368 55.3651 24.4472 55.6093 24.0125 56.0439C23.5778 56.4785 23.3336 57.0679 23.3336 57.6825C23.3336 58.2972 23.5778 58.8866 24.0125 59.3212C24.4472 59.7558 25.0368 60 25.6515 60H51.7221C52.3369 60 52.9265 59.7558 53.3612 59.3212C53.7959 58.8866 54.0401 58.2972 54.0401 57.6825C54.0401 57.0679 53.7959 56.4785 53.3612 56.0439C52.9265 55.6093 52.3369 55.3651 51.7221 55.3651H48.9655C50.4369 54.037 51.6354 52.435 52.494 50.6487H56.0561C57.8293 50.6487 59.5515 50.0556 60.9485 48.9637C62.3455 47.8719 63.337 46.3442 63.7651 44.6238ZM59.0956 43.4639C58.9318 44.1466 58.5429 44.7544 57.9915 45.1891C57.4401 45.6239 56.7583 45.8604 56.0561 45.8604H54.0281C54.5166 43.7951 54.8863 41.7035 55.1356 39.5959H56.0561C56.5318 39.5956 57.0014 39.7037 57.4291 39.912C57.8568 40.1203 58.2314 40.4233 58.5244 40.7981C58.8174 41.1728 59.0211 41.6094 59.1201 42.0746C59.2191 42.5399 59.2107 43.0215 59.0956 43.483V43.4639Z" fill="#C7794A"/>
</svg>
