<svg width="102" height="42" viewBox="0 0 102 42" fill="none" xmlns="http://www.w3.org/2000/svg">
<path d="M16.4168 2.79245C13.6069 2.79245 11.1889 3.06437 9.22941 3.60023C7.27792 4.13343 5.66768 4.99187 4.43867 6.14623C3.20699 7.30059 2.29524 8.81752 1.72739 10.657C1.1542 12.5019 0.866279 14.7866 0.866279 17.4499V27.0767C0.866279 29.74 1.15687 32.0354 1.72739 33.8962C2.29524 35.7517 3.20699 37.2767 4.43867 38.4337C5.66768 39.5907 7.28059 40.4385 9.22941 40.9504C11.1862 41.4676 13.6042 41.7315 16.4195 41.7315H39.0269C41.2183 41.7315 42.9218 41.0943 44.0895 39.8387C45.2572 38.5803 45.8491 36.3756 45.8491 33.2884V20.2465C45.8491 19.1961 45.3399 18.6869 44.2895 18.6869H20.949C20.1892 18.6869 19.8373 19.0575 19.8373 19.8546V24.0508C19.8373 24.848 20.1918 25.2185 20.949 25.2185H37.3447C37.7046 25.2185 38.1338 25.3652 38.1338 26.0636V30.5958C38.1338 31.9074 37.9045 32.8032 37.4326 33.3337C36.9634 33.8616 36.2196 34.1282 35.2172 34.1282H16.7501C15.2891 34.1282 14.0655 34.0055 13.111 33.7603C12.1406 33.5123 11.3595 33.0884 10.789 32.4966C10.2158 31.9048 9.80259 31.0943 9.55465 30.0919C9.31205 29.1002 9.18675 27.8392 9.18675 26.3436V18.287C9.18675 16.7914 9.30938 15.5384 9.55465 14.5653C9.79992 13.5816 10.2158 12.7818 10.789 12.19C11.3622 11.5981 12.1433 11.1742 13.111 10.9263C14.0681 10.681 15.2945 10.5584 16.7501 10.5584H44.7854C45.5452 10.5584 45.8997 10.1878 45.8997 9.39071V3.90415C45.8997 3.14435 45.5452 2.79245 44.7854 2.79245H16.4168ZM39.0242 41.9661H16.4168C13.5803 41.9661 11.1409 41.7022 9.16542 41.1796C7.17928 40.6545 5.53171 39.7907 4.27338 38.6043C3.01238 37.4206 2.07929 35.8584 1.49811 33.9629C0.919599 32.0781 0.626343 29.7587 0.626343 27.074V17.4472C0.626343 14.7626 0.919599 12.4539 1.49811 10.5851C2.07929 8.70822 3.01238 7.15663 4.27071 5.97294C5.52638 4.78925 7.17395 3.91482 9.16009 3.37096C11.1409 2.82977 13.5803 2.55518 16.4115 2.55518H44.7827C45.6651 2.55518 46.1343 3.02172 46.1343 3.90415V9.38804C46.1343 10.3078 45.6678 10.793 44.7827 10.793H16.7501C15.3131 10.793 14.1081 10.913 13.1697 11.1529C12.2446 11.3902 11.5008 11.7927 10.9596 12.3526C10.4158 12.9151 10.0212 13.6776 9.78659 14.6213C9.54665 15.5784 9.42669 16.8101 9.42669 18.287V26.3462C9.42669 27.8232 9.54665 29.0655 9.78659 30.0386C10.0239 31.001 10.4184 31.7741 10.9596 32.334C11.5008 32.8938 12.2446 33.2964 13.1697 33.5337C14.1055 33.7709 15.3078 33.8936 16.7501 33.8936H35.2172C36.1476 33.8936 36.8328 33.6536 37.254 33.1791C37.6806 32.7019 37.8965 31.8328 37.8965 30.5984V26.0663C37.8965 25.6451 37.7259 25.4558 37.3447 25.4558H20.949C20.0665 25.4558 19.6 24.9706 19.6 24.0508V19.8546C19.6 18.9349 20.0665 18.4496 20.949 18.4496H44.2868C45.4785 18.4496 46.0837 19.0548 46.0837 20.2465V33.2857C46.0837 36.4369 45.4705 38.695 44.2628 39.9986C43.0471 41.3023 41.2849 41.9661 39.0242 41.9661Z" fill="#DB8E00"/>
<path d="M17.2859 2.2192C14.476 2.2192 12.058 2.49113 10.0985 3.02699C8.1497 3.56018 6.53679 4.41862 5.30778 5.57299C4.07877 6.72735 3.16701 8.24428 2.5965 10.0838C2.02331 11.9286 1.73539 14.2134 1.73539 16.8767V26.5035C1.73539 29.1668 2.02598 31.4622 2.5965 33.323C3.16435 35.1785 4.07611 36.7034 5.30778 37.8605C6.53679 39.0175 8.1497 39.8653 10.0985 40.3771C12.0553 40.8943 14.4734 41.1583 17.2886 41.1583H39.896C42.0874 41.1583 43.791 40.5211 44.9586 39.2654C46.1263 38.0071 46.7182 35.8023 46.7182 32.7152V19.6733C46.7182 18.6229 46.209 18.1137 45.1586 18.1137H21.8208C21.061 18.1137 20.709 18.4842 20.709 19.2814V23.4776C20.709 24.2747 21.0636 24.6453 21.8208 24.6453H38.2164C38.5763 24.6453 39.0056 24.7919 39.0056 25.4904V30.0225C39.0056 31.3342 38.7763 32.2299 38.3044 32.7605C37.8352 33.2883 37.0914 33.5549 36.089 33.5549H17.6219C16.1609 33.5549 14.9372 33.4323 13.9828 33.187C13.0151 32.9391 12.234 32.5152 11.6608 31.9234C11.0876 31.3315 10.6744 30.5237 10.4264 29.5187C10.1838 28.5269 10.0585 27.2633 10.0585 25.7677V17.7138C10.0585 16.2182 10.1812 14.9678 10.4264 13.9921C10.6717 13.0084 11.0876 12.2086 11.6608 11.6167C12.234 11.0249 13.0151 10.601 13.9828 10.3531C14.9399 10.1078 16.1662 9.98515 17.6219 9.98515H45.6571C46.4169 9.98515 46.7715 9.61458 46.7715 8.81746V3.33358C46.7715 2.57378 46.4169 2.22187 45.6571 2.22187H17.2859V2.2192ZM39.8933 41.3929H17.2859C14.4494 41.3929 12.01 41.1289 10.0345 40.6064C8.04839 40.0812 6.40082 39.2174 5.14249 38.0311C3.88149 36.8474 2.9484 35.2851 2.36722 33.3896C1.78871 31.5048 1.49545 29.1854 1.49545 26.5008V16.874C1.49545 14.1894 1.78871 11.8807 2.36722 10.0118C2.9484 8.13498 3.88149 6.58339 5.13982 5.3997C6.39816 4.21601 8.04306 3.34157 10.0292 2.79772C12.01 2.25653 14.4494 1.98193 17.2806 1.98193H45.6518C46.5342 1.98193 47.0034 2.44848 47.0034 3.33091V8.81746C47.0034 9.73722 46.5369 10.2224 45.6518 10.2224H17.6219C16.1849 10.2224 14.9799 10.3424 14.0415 10.5823C13.1164 10.8196 12.3726 11.2222 11.8314 11.782C11.2875 12.3445 10.893 13.107 10.6584 14.0507C10.4184 15.0078 10.2985 16.2395 10.2985 17.7164V25.7757C10.2985 27.2526 10.4184 28.4949 10.6584 29.468C10.8956 30.4304 11.2902 31.2036 11.8314 31.7634C12.3726 32.3233 13.1164 32.7258 14.0415 32.9631C14.9772 33.2004 16.1796 33.323 17.6219 33.323H36.089C37.0194 33.323 37.7046 33.0831 38.1258 32.6085C38.5523 32.1313 38.7683 31.2622 38.7683 30.0279V25.4957C38.7683 25.0745 38.5977 24.8852 38.2164 24.8852H21.8208C20.9383 24.8852 20.4718 24.4 20.4718 23.4803V19.2814C20.4718 18.3616 20.9383 17.8764 21.8208 17.8764H45.1586C46.3503 17.8764 46.9555 18.4816 46.9555 19.6733V32.7125C46.9555 35.8637 46.3423 38.1217 45.1346 39.4254C43.9163 40.729 42.1541 41.3929 39.8933 41.3929Z" fill="#DB8E00"/>
<path d="M18.1551 1.64596C15.3451 1.64596 12.9271 1.91789 10.9676 2.45375C9.01881 2.98694 7.4059 3.84538 6.17689 4.99974C4.94788 6.15411 4.03612 7.67104 3.46561 9.51055C2.89242 11.3554 2.6045 13.6401 2.6045 16.3034V25.9302C2.6045 28.5935 2.89509 30.8889 3.46561 32.7498C4.03346 34.6053 4.94521 36.1302 6.17689 37.2872C7.4059 38.4442 9.01881 39.292 10.9676 39.8039C12.9244 40.3211 15.3425 40.5824 18.1577 40.5824H40.7651C42.9565 40.5824 44.6601 39.9452 45.8278 38.6895C46.9954 37.4312 47.5873 35.2264 47.5873 32.1392V19.1C47.5873 18.0496 47.0781 17.5404 46.0277 17.5404H22.6899C21.9301 17.5404 21.5782 17.911 21.5782 18.7081V22.9044C21.5782 23.7015 21.9327 24.072 22.6899 24.072H39.0855C39.4454 24.072 39.8747 24.2187 39.8747 24.9172V29.4493C39.8747 30.7609 39.6454 31.6567 39.1735 32.1872C38.7043 32.7151 37.9605 32.9817 36.9608 32.9817H18.491C17.03 32.9817 15.8063 32.8591 14.8519 32.6138C13.8842 32.3659 13.1031 31.942 12.5299 31.3501C11.9567 30.7583 11.5435 29.9505 11.2955 28.9454C11.0529 27.9537 10.9276 26.69 10.9276 25.1944V17.1405C10.9276 15.6449 11.0503 14.3946 11.2955 13.4189C11.5408 12.4351 11.9567 11.6353 12.5299 11.0435C13.1031 10.4516 13.8842 10.0278 14.8519 9.77982C15.809 9.53455 17.0354 9.41191 18.491 9.41191H46.5262C47.286 9.41191 47.6406 9.04134 47.6406 8.24422V2.76033C47.6406 2.00054 47.286 1.64863 46.5262 1.64863H18.1551V1.64596ZM40.7624 40.8196H18.1551C15.3185 40.8196 12.8791 40.5557 10.9036 40.0332C8.9175 39.508 7.2726 38.6442 6.0116 37.4578C4.7506 36.2742 3.81751 34.7119 3.23633 32.8164C2.65782 30.9316 2.36456 28.6148 2.36456 25.9276V16.3008C2.36456 13.6161 2.65782 11.3074 3.23633 9.43857C3.81751 7.56173 4.7506 6.01014 6.00893 4.82646C7.26727 3.64277 8.91217 2.76833 10.8983 2.22448C12.8791 1.68329 15.3185 1.40869 18.1497 1.40869H46.5209C47.4033 1.40869 47.8725 1.87524 47.8725 2.75767V8.24155C47.8725 9.16131 47.406 9.64652 46.5209 9.64652H18.491C17.054 9.64652 15.849 9.76649 14.9106 10.0064C13.9855 10.2437 13.2417 10.6463 12.7005 11.2061C12.1566 11.7686 11.7621 12.5311 11.5275 13.4748C11.2875 14.4319 11.1676 15.6636 11.1676 17.1405V25.1997C11.1676 26.6767 11.2875 27.919 11.5275 28.8921C11.7647 29.8545 12.1593 30.6276 12.7005 31.1875C13.2417 31.7474 13.9855 32.1499 14.9106 32.3872C15.8463 32.6271 17.0514 32.7471 18.491 32.7471H36.9581C37.8885 32.7471 38.5737 32.5071 38.9949 32.0326C39.4214 31.5554 39.6374 30.6863 39.6374 29.452V24.9198C39.6374 24.4986 39.4668 24.3093 39.0855 24.3093H22.6899C21.8074 24.3093 21.3409 23.8241 21.3409 22.9044V18.7081C21.3409 17.7884 21.8074 17.3032 22.6899 17.3032H46.0277C47.2194 17.3032 47.8246 17.9083 47.8246 19.1V32.1392C47.8246 35.2904 47.2114 37.5485 46.001 38.8521C44.7854 40.1585 43.0258 40.8196 40.7624 40.8196Z" fill="#DB8E00"/>
<path d="M19.0242 1.07298C16.2142 1.07298 13.7962 1.34491 11.8367 1.88077C9.88791 2.41396 8.275 3.2724 7.04599 4.42677C5.81698 5.58113 4.90522 7.09806 4.3347 8.93758C3.76152 10.7824 3.4736 13.0672 3.4736 15.7304V25.3572C3.4736 28.0205 3.76419 30.3159 4.3347 32.1768C4.90255 34.0323 5.81431 35.5572 7.04599 36.7142C8.275 37.8713 9.88791 38.7191 11.8367 39.2309C13.7935 39.7481 16.2116 40.0094 19.0268 40.0094H41.6342C43.8256 40.0094 45.5292 39.3722 46.6969 38.1165C47.8645 36.8582 48.4564 34.6535 48.4564 31.5663V18.527C48.4564 17.4767 47.9472 16.9675 46.8968 16.9675H23.559C22.7992 16.9675 22.4473 17.338 22.4473 18.1351V22.334C22.4473 23.1312 22.8018 23.5017 23.559 23.5017H39.9546C40.3145 23.5017 40.7438 23.6484 40.7438 24.3468V28.879C40.7438 30.1906 40.5145 31.0864 40.0426 31.6169C39.5734 32.1448 38.8296 32.4114 37.8299 32.4114H19.3601C17.8991 32.4114 16.6754 32.2887 15.721 32.0435C14.7533 31.7955 13.9722 31.3717 13.399 30.7798C12.8258 30.188 12.4126 29.3802 12.1646 28.3751C11.922 27.3807 11.7967 26.1197 11.7967 24.6241V16.5676C11.7967 15.0746 11.9194 13.8216 12.1646 12.8459C12.4099 11.8621 12.8258 11.0623 13.399 10.4705C13.9722 9.87866 14.7533 9.45477 15.721 9.20684C16.6781 8.96157 17.9018 8.83893 19.3601 8.83893H47.3953C48.1551 8.83893 48.5097 8.46837 48.5097 7.67124V2.18736C48.5097 1.42756 48.1551 1.07565 47.3953 1.07565H19.0242V1.07298ZM41.6342 40.2466H19.0268C16.1902 40.2466 13.7509 39.9827 11.7754 39.4602C9.78926 38.935 8.14437 38.0712 6.88337 36.8849C5.62236 35.7012 4.68928 34.1389 4.1081 32.2434C3.52958 30.3586 3.23633 28.0419 3.23633 25.3546V15.7304C3.23633 13.0432 3.52958 10.7344 4.1081 8.86826C4.68928 6.99142 5.62236 5.43983 6.8807 4.25614C8.13903 3.07246 9.78393 2.19802 11.7701 1.65416C13.7509 1.11297 16.1902 0.838379 19.0215 0.838379H47.3927C48.2751 0.838379 48.7443 1.30492 48.7443 2.18736V7.67124C48.7443 8.591 48.2778 9.07621 47.3927 9.07621H19.3601C17.9231 9.07621 16.7181 9.19617 15.7797 9.43611C14.8546 9.67338 14.1108 10.0759 13.5696 10.6358C13.0257 11.1983 12.6312 11.9608 12.3966 12.9045C12.1566 13.8616 12.0367 15.096 12.0367 16.5702V24.6294C12.0367 26.1064 12.1566 27.3487 12.3966 28.3218C12.6338 29.2842 13.0284 30.0573 13.5696 30.6172C14.1108 31.177 14.8546 31.5796 15.7797 31.8169C16.7154 32.0568 17.9205 32.1768 19.3601 32.1768H37.8272C38.7576 32.1768 39.4428 31.9368 39.864 31.4623C40.2905 30.9851 40.5065 30.116 40.5065 28.8816V24.3495C40.5065 23.9283 40.3359 23.739 39.9546 23.739H23.559C22.6765 23.739 22.21 23.2538 22.21 22.334V18.1351C22.21 17.2154 22.6765 16.7302 23.559 16.7302H46.8968C48.0885 16.7302 48.6937 17.3354 48.6937 18.527V31.5663C48.6937 34.7174 48.0805 36.9755 46.8701 38.2792C45.6545 39.5855 43.8949 40.2466 41.6342 40.2466Z" fill="#DB8E00"/>
<path d="M19.8959 0.499741C17.086 0.499741 14.668 0.77167 12.7085 1.30753C10.7597 1.84072 9.14677 2.69916 7.91776 3.85352C6.68609 5.01055 5.77433 6.52748 5.20648 8.36433C4.6333 10.2092 4.34538 12.4939 4.34538 15.1572V24.784C4.34538 27.4473 4.63597 29.7427 5.20648 31.6035C5.77433 33.459 6.68609 34.984 7.91776 36.141C9.14677 37.298 10.7597 38.1458 12.7058 38.6577C14.6627 39.1749 17.0807 39.4361 19.8959 39.4361H42.5033C44.6947 39.4361 46.3983 38.799 47.566 37.5433C48.7337 36.285 49.3255 34.0802 49.3255 30.993V17.9538C49.3255 16.9034 48.8163 16.3942 47.7659 16.3942H24.4281C23.6683 16.3942 23.3164 16.7648 23.3164 17.5619V21.7581C23.3164 22.5553 23.6709 22.9258 24.4281 22.9258H40.8237C41.1837 22.9258 41.6129 23.0725 41.6129 23.7709V28.3031C41.6129 29.6147 41.3836 30.5105 40.9117 31.041C40.4425 31.5689 39.6987 31.8355 38.699 31.8355H20.2292C18.7682 31.8355 17.5446 31.7128 16.5901 31.4676C15.6224 31.2196 14.8413 30.7957 14.2681 30.2039C13.6949 29.6121 13.2817 28.8043 13.0337 27.7992C12.7911 26.8048 12.6658 25.5438 12.6658 24.0482V15.997C12.6658 14.504 12.7885 13.251 13.0337 12.2753C13.279 11.2916 13.6949 10.4918 14.2681 9.89993C14.8413 9.30808 15.6224 8.8842 16.5901 8.63626C17.5472 8.39099 18.7709 8.26836 20.2292 8.26836H48.2671C49.0269 8.26836 49.3815 7.89779 49.3815 7.10067V1.61411C49.3815 0.854314 49.0269 0.502407 48.2671 0.502407H19.8959V0.499741ZM42.5033 39.6734H19.8959C17.062 39.6734 14.6227 39.4095 12.6445 38.8869C10.6584 38.3617 9.01348 37.498 7.75248 36.3116C6.49148 35.1279 5.55839 33.5657 4.97721 31.6702C4.39869 29.7853 4.10544 27.4686 4.10544 24.7813V15.1572C4.10544 12.4699 4.39869 10.1612 4.97721 8.29502C5.55839 6.41818 6.49148 4.86659 7.74981 3.6829C9.00814 2.49921 10.653 1.62478 12.6392 1.08092C14.62 0.539731 17.0594 0.265137 19.8906 0.265137H48.2618C49.1442 0.265137 49.6134 0.73168 49.6134 1.61411V7.098C49.6134 8.01776 49.1469 8.50296 48.2618 8.50296H20.2292C18.7922 8.50296 17.5872 8.62293 16.6488 8.86287C15.7237 9.10014 14.9799 9.5027 14.4387 10.0626C13.8949 10.6251 13.5003 11.3875 13.2657 12.3313C13.0258 13.2884 12.9058 14.5227 12.9058 15.997V24.0562C12.9058 25.5331 13.0258 26.7755 13.2657 27.7486C13.503 28.711 13.8975 29.4841 14.4387 30.0439C14.9799 30.6038 15.7237 31.0064 16.6488 31.2436C17.5845 31.4836 18.7896 31.6035 20.2292 31.6035H38.6963C39.6267 31.6035 40.3119 31.3636 40.7331 30.8891C41.1597 30.4118 41.3756 29.5427 41.3756 28.3084V23.7763C41.3756 23.355 41.205 23.1658 40.8237 23.1658H24.4281C23.5456 23.1658 23.0791 22.6806 23.0791 21.7608V17.5619C23.0791 16.6421 23.5456 16.1569 24.4281 16.1569H47.7659C48.9576 16.1569 49.5628 16.7621 49.5628 17.9538V30.993C49.5628 34.1442 48.9496 36.4023 47.7393 37.7059C46.5262 39.0122 44.764 39.6734 42.5033 39.6734Z" fill="#DB8E00"/>
<path d="M58.9896 19.3589C59.1149 19.3589 59.1762 19.4202 59.1762 19.5455V20.38C59.1762 20.5106 59.1149 20.5746 58.9896 20.5746H54.724C54.5028 20.5746 54.3188 20.5932 54.1749 20.6306C54.0309 20.6679 53.9163 20.7292 53.8309 20.8172C53.7456 20.9051 53.6843 21.0224 53.647 21.1717C53.6097 21.3184 53.591 21.5077 53.591 21.7343V22.9606C53.591 23.1872 53.6097 23.3765 53.647 23.5258C53.6843 23.6751 53.7456 23.795 53.8309 23.883C53.9163 23.971 54.0309 24.0323 54.1749 24.0696C54.3188 24.107 54.5028 24.1256 54.724 24.1256H57.534C57.6806 24.1256 57.7899 24.0883 57.8565 24.011C57.9232 23.9337 57.9579 23.8004 57.9579 23.6058V22.9153C57.9579 22.8406 57.9232 22.806 57.8565 22.806H55.3612C55.2359 22.806 55.1746 22.7393 55.1746 22.6114V21.9715C55.1746 21.8409 55.2359 21.7769 55.3612 21.7769H58.9096C59.0802 21.7769 59.1655 21.8622 59.1655 22.0328V24.0163C59.1655 24.4935 59.0749 24.8294 58.8936 25.0241C58.7123 25.2187 58.4511 25.3173 58.1098 25.3173H54.6707C54.2388 25.3173 53.8736 25.2773 53.5723 25.1973C53.2711 25.1174 53.0258 24.9894 52.8365 24.8108C52.6473 24.6322 52.5086 24.4002 52.4207 24.1123C52.3327 23.8244 52.2874 23.4778 52.2874 23.0699V21.6063C52.2874 21.1984 52.33 20.8518 52.4207 20.5666C52.5086 20.284 52.6473 20.052 52.8365 19.8734C53.0258 19.6948 53.2711 19.5642 53.5723 19.4815C53.8736 19.3989 54.2388 19.3589 54.6707 19.3589H58.9896Z" fill="white"/>
<path d="M65.0653 19.3591C65.7185 19.3591 66.185 19.5057 66.4703 19.8017C66.7529 20.0976 66.8969 20.5321 66.8969 21.1133V21.5985C66.8969 22.0864 66.7982 22.473 66.5983 22.7555C66.3983 23.0381 66.0757 23.2221 65.6279 23.2994L67.0835 25.1043C67.1128 25.1336 67.1208 25.1762 67.1101 25.2322C67.0995 25.2882 67.0542 25.3175 66.9742 25.3175H65.8758C65.8011 25.3175 65.7505 25.3095 65.7238 25.2909C65.6945 25.2749 65.6678 25.2456 65.6385 25.2056L64.2922 23.4354H61.5436V25.1283C61.5436 25.2536 61.4823 25.3149 61.357 25.3149H60.4372C60.3066 25.3149 60.2426 25.2536 60.2426 25.1283V19.6124C60.2426 19.4418 60.3279 19.3564 60.4985 19.3564H65.0653V19.3591ZM61.5409 22.3956H64.8014C65.092 22.3956 65.2946 22.3343 65.4146 22.209C65.5345 22.0837 65.5932 21.8944 65.5932 21.6385V21.2813C65.5932 21.0253 65.5345 20.8361 65.4146 20.7108C65.2946 20.5855 65.092 20.5241 64.8014 20.5241H61.6529C61.5783 20.5241 61.5409 20.5588 61.5409 20.6254V22.3956Z" fill="white"/>
<path d="M68.9736 19.3589C69.0989 19.3589 69.1602 19.4202 69.1602 19.5455V22.9419C69.1602 23.1685 69.1789 23.3578 69.2162 23.5071C69.2535 23.6564 69.3149 23.7764 69.4002 23.8644C69.4855 23.9523 69.6001 24.0137 69.7441 24.051C69.888 24.0883 70.072 24.107 70.2933 24.107H72.65C72.8712 24.107 73.0552 24.0883 73.1992 24.051C73.3431 24.0137 73.4578 23.9523 73.5431 23.8644C73.6284 23.7764 73.687 23.6564 73.7217 23.5071C73.7563 23.3578 73.7723 23.1685 73.7723 22.9419V19.5455C73.7723 19.4202 73.8337 19.3589 73.959 19.3589H74.8867C75.012 19.3589 75.0733 19.4202 75.0733 19.5455V23.0699C75.0733 23.4778 75.0307 23.827 74.9454 24.1123C74.8601 24.3976 74.7214 24.6322 74.5321 24.8108C74.3429 24.9894 74.0949 25.1174 73.791 25.1973C73.4871 25.2773 73.1192 25.3173 72.69 25.3173H70.2373C69.8054 25.3173 69.4401 25.2773 69.1389 25.1973C68.8376 25.1174 68.5924 24.9894 68.4031 24.8108C68.2138 24.6322 68.0752 24.4002 67.9872 24.1123C67.8992 23.8244 67.8566 23.4778 67.8566 23.0699V19.5455C67.8566 19.4202 67.9206 19.3589 68.0512 19.3589H68.9736Z" fill="white"/>
<path d="M81.0158 19.3591C81.669 19.3591 82.1355 19.5057 82.4208 19.8017C82.7034 20.0976 82.8473 20.5321 82.8473 21.1133V21.7425C82.8473 22.321 82.706 22.7582 82.4208 23.0541C82.1382 23.3501 81.669 23.4967 81.0158 23.4967H77.4914V25.1309C77.4914 25.2562 77.4301 25.3175 77.3048 25.3175H76.385C76.2544 25.3175 76.1904 25.2562 76.1904 25.1309V19.6124C76.1904 19.4418 76.2757 19.3564 76.4464 19.3564H81.0158V19.3591ZM77.4914 22.3716H80.7519C81.0425 22.3716 81.2451 22.3103 81.3651 22.185C81.485 22.0597 81.5437 21.8704 81.5437 21.6145V21.2919C81.5437 21.036 81.485 20.8467 81.3651 20.7214C81.2451 20.5961 81.0425 20.5348 80.7519 20.5348H77.6034C77.5287 20.5348 77.4914 20.5695 77.4914 20.6361V22.3716Z" fill="white"/>
<path d="M88.6324 19.3589C89.0643 19.3589 89.4322 19.4015 89.7361 19.4815C90.0401 19.5642 90.2853 19.6948 90.4773 19.8734C90.6692 20.052 90.8052 20.284 90.8905 20.5666C90.9758 20.8492 91.0185 21.1957 91.0185 21.6063V23.0699C91.0185 23.4778 90.9758 23.827 90.8905 24.1123C90.8052 24.3976 90.6666 24.6322 90.4773 24.8108C90.288 24.9894 90.0401 25.1174 89.7361 25.1973C89.4322 25.2773 89.0643 25.3173 88.6324 25.3173H86.0038C85.5719 25.3173 85.2067 25.2773 84.9054 25.1973C84.6042 25.1174 84.3589 24.9894 84.1696 24.8108C83.9803 24.6322 83.8417 24.4002 83.7537 24.1123C83.6657 23.8244 83.6204 23.4778 83.6204 23.0699V21.6063C83.6204 21.1984 83.6631 20.8518 83.7537 20.5666C83.8417 20.284 83.9803 20.052 84.1696 19.8734C84.3589 19.6948 84.6042 19.5642 84.9054 19.4815C85.2067 19.3989 85.5719 19.3589 86.0038 19.3589H88.6324ZM84.9241 22.9766C84.9241 23.1979 84.9427 23.3845 84.9801 23.5338C85.0174 23.6831 85.0787 23.803 85.164 23.891C85.2493 23.979 85.364 24.0403 85.5079 24.0776C85.6519 24.115 85.8358 24.1336 86.0571 24.1336H88.5844C88.8057 24.1336 88.9897 24.115 89.1336 24.0776C89.2776 24.0403 89.3922 23.979 89.4775 23.891C89.5629 23.803 89.6242 23.6831 89.6615 23.5338C89.6988 23.3845 89.7175 23.1979 89.7175 22.9766V21.6996C89.7175 21.4783 89.6988 21.2917 89.6615 21.1424C89.6242 20.9931 89.5629 20.8732 89.4775 20.7852C89.3922 20.6972 89.2776 20.6359 89.1336 20.5986C88.9897 20.5612 88.8057 20.5426 88.5844 20.5426H86.0571C85.8358 20.5426 85.6519 20.5612 85.5079 20.5986C85.364 20.6359 85.2493 20.6972 85.164 20.7852C85.0787 20.8732 85.0174 20.9931 84.9801 21.1424C84.9427 21.2917 84.9241 21.4783 84.9241 21.6996V22.9766Z" fill="white"/>
<path d="M59.0083 27.4609C59.1362 27.4609 59.2002 27.5249 59.2002 27.6529V28.5087C59.2002 28.642 59.1362 28.7086 59.0083 28.7086H54.6388C54.4121 28.7086 54.2255 28.7273 54.0762 28.7646C53.9269 28.8019 53.8096 28.8659 53.7243 28.9565C53.6364 29.0472 53.575 29.1672 53.5377 29.3191C53.5004 29.4711 53.4817 29.663 53.4817 29.895V31.1506C53.4817 31.3826 53.5004 31.5772 53.5377 31.7318C53.575 31.8864 53.639 32.0091 53.7243 32.097C53.8123 32.1877 53.9296 32.2517 54.0762 32.289C54.2255 32.3263 54.4121 32.345 54.6388 32.345H57.518C57.67 32.345 57.7793 32.305 57.8486 32.2277C57.9179 32.1504 57.9525 32.0117 57.9525 31.8145V31.108C57.9525 31.0333 57.9179 30.996 57.8486 30.996H55.2919C55.1639 30.996 55.1 30.9294 55.1 30.7961V30.1429C55.1 30.0096 55.1639 29.9429 55.2919 29.9429H58.9283C59.1042 29.9429 59.1896 30.0309 59.1896 30.2042V32.2357C59.1896 32.7235 59.0962 33.0675 58.9096 33.2701C58.723 33.47 58.4564 33.5713 58.1072 33.5713H54.5828C54.1402 33.5713 53.7643 33.5313 53.4577 33.4487C53.1485 33.3687 52.8979 33.2354 52.7033 33.0515C52.5087 32.8675 52.3674 32.6302 52.2767 32.337C52.1861 32.0437 52.1407 31.6865 52.1407 31.2679V29.767C52.1407 29.3484 52.1861 28.9939 52.2767 28.7033C52.3674 28.4127 52.5087 28.1754 52.7033 27.9915C52.8979 27.8075 53.1485 27.6742 53.4577 27.5916C53.7643 27.5063 54.1402 27.4636 54.5828 27.4636H59.0083V27.4609Z" fill="white"/>
<path d="M65.236 27.4607C65.9051 27.4607 66.385 27.6126 66.6756 27.9139C66.9662 28.2151 67.1128 28.663 67.1128 29.2575V29.7534C67.1128 30.2546 67.0115 30.6492 66.8089 30.9398C66.6063 31.2303 66.273 31.417 65.8145 31.4969L67.3048 33.3471C67.3341 33.3764 67.3421 33.4191 67.3314 33.4778C67.3208 33.5364 67.2728 33.5657 67.1928 33.5657H66.0678C65.9931 33.5657 65.9398 33.5577 65.9105 33.5391C65.8811 33.5231 65.8518 33.4937 65.8225 33.4511L64.4442 31.6356H61.6263V33.3711C61.6263 33.4991 61.5623 33.5631 61.4343 33.5631H60.4932C60.3599 33.5631 60.2933 33.4991 60.2933 33.3711V27.7193C60.2933 27.5433 60.3812 27.458 60.5545 27.458H65.236V27.4607ZM61.6236 30.5745H64.964C65.26 30.5745 65.4706 30.5105 65.5932 30.3826C65.7158 30.2546 65.7772 30.06 65.7772 29.7987V29.4335C65.7772 29.1722 65.7158 28.9776 65.5932 28.8496C65.4706 28.7217 65.2626 28.6577 64.964 28.6577H61.7382C61.6636 28.6577 61.6236 28.6923 61.6236 28.7617V30.5745Z" fill="white"/>
<path d="M72.0555 27.4609C72.2768 27.4609 72.4634 27.5063 72.6127 27.5969C72.7647 27.6875 72.9113 27.8635 73.0579 28.1248L75.9452 33.366C75.9745 33.4247 75.9825 33.4727 75.9665 33.51C75.9532 33.5473 75.9105 33.566 75.8412 33.566H74.7321C74.6335 33.566 74.5669 33.5287 74.5322 33.454L73.9137 32.329H69.8134L69.2109 33.454C69.1709 33.5287 69.1043 33.566 69.011 33.566H67.8779C67.8033 33.566 67.758 33.5473 67.742 33.51C67.726 33.4727 67.734 33.4247 67.7633 33.366L70.6239 28.1248C70.7679 27.8635 70.9118 27.6875 71.0504 27.5969C71.1891 27.5063 71.3517 27.4609 71.5383 27.4609H72.0555ZM70.3626 31.3159H73.3645L71.9782 28.7593C71.9542 28.7193 71.9222 28.6979 71.8822 28.6979H71.8289C71.7889 28.6979 71.7569 28.7193 71.7329 28.7593L70.3626 31.3159Z" fill="white"/>
<path d="M82.6447 27.4609C82.7727 27.4609 82.8366 27.5249 82.8366 27.6529V28.5087C82.8366 28.642 82.7727 28.7086 82.6447 28.7086H78.763C78.5364 28.7086 78.3498 28.7273 78.2005 28.7646C78.0512 28.8019 77.9339 28.8659 77.8486 28.9565C77.7606 29.0472 77.6993 29.1672 77.662 29.3191C77.6247 29.4711 77.606 29.663 77.606 29.895V31.1346C77.606 31.3666 77.6247 31.5612 77.662 31.7158C77.6993 31.8704 77.7633 31.9931 77.8486 32.081C77.9366 32.1717 78.0539 32.2357 78.2005 32.273C78.3498 32.3103 78.5364 32.329 78.763 32.329H82.6447C82.7727 32.329 82.8366 32.393 82.8366 32.5209V33.3767C82.8366 33.5047 82.7727 33.5687 82.6447 33.5687H78.7097C78.2672 33.5687 77.8913 33.5287 77.5847 33.446C77.2754 33.366 77.0248 33.2327 76.8302 33.0488C76.6356 32.8648 76.4943 32.6276 76.4037 32.3343C76.313 32.0411 76.2677 31.6838 76.2677 31.2653V29.7643C76.2677 29.3458 76.313 28.9912 76.4037 28.7006C76.4943 28.41 76.6356 28.1728 76.8302 27.9888C77.0248 27.8048 77.2754 27.6715 77.5847 27.5889C77.8913 27.5036 78.2672 27.4609 78.7097 27.4609H82.6447Z" fill="white"/>
<path d="M88.8378 27.4609C89.2803 27.4609 89.6562 27.5036 89.9681 27.5889C90.28 27.6742 90.5306 27.8075 90.7279 27.9888C90.9225 28.1728 91.0638 28.41 91.1518 28.7006C91.2398 28.9912 91.2824 29.3458 91.2824 29.7643V31.2653C91.2824 31.6838 91.2398 32.0411 91.1518 32.3343C91.0638 32.6276 90.9225 32.8675 90.7279 33.0488C90.5333 33.2327 90.28 33.3634 89.9681 33.446C89.6562 33.5287 89.2803 33.5687 88.8378 33.5687H86.1425C85.6999 33.5687 85.324 33.5287 85.0174 33.446C84.7082 33.366 84.4576 33.2327 84.263 33.0488C84.0683 32.8648 83.927 32.6276 83.8364 32.3343C83.7458 32.0411 83.7004 31.6838 83.7004 31.2653V29.7643C83.7004 29.3458 83.7458 28.9912 83.8364 28.7006C83.927 28.41 84.0683 28.1728 84.263 27.9888C84.4576 27.8048 84.7082 27.6715 85.0174 27.5889C85.324 27.5036 85.6999 27.4609 86.1425 27.4609H88.8378ZM85.0361 31.1693C85.0361 31.3959 85.0547 31.5852 85.0921 31.7398C85.1294 31.8944 85.1934 32.0171 85.2787 32.105C85.364 32.193 85.484 32.2597 85.6306 32.297C85.7799 32.3343 85.9665 32.353 86.1931 32.353H88.7844C89.011 32.353 89.1977 32.3343 89.3469 32.297C89.4962 32.2597 89.6135 32.1957 89.6989 32.105C89.7868 32.0144 89.8482 31.8918 89.8855 31.7398C89.9228 31.5852 89.9415 31.3959 89.9415 31.1693V29.8603C89.9415 29.6337 89.9228 29.4417 89.8855 29.2898C89.8482 29.1352 89.7842 29.0125 89.6989 28.9246C89.6109 28.8339 89.4936 28.7699 89.3469 28.7326C89.1977 28.6953 89.011 28.6766 88.7844 28.6766H86.1931C85.9665 28.6766 85.7799 28.6953 85.6306 28.7326C85.4813 28.7699 85.364 28.8339 85.2787 28.9246C85.1907 29.0152 85.1294 29.1378 85.0921 29.2898C85.0547 29.4444 85.0361 29.6337 85.0361 29.8603V31.1693Z" fill="white"/>
<path d="M94.0897 27.4609C94.2177 27.4609 94.327 27.4689 94.4203 27.4876C94.5136 27.5036 94.5962 27.5383 94.6656 27.5889C94.7349 27.6369 94.7989 27.7062 94.8522 27.7889C94.9055 27.8715 94.9641 27.9861 95.0228 28.1248L96.8356 32.3103C96.8596 32.3636 96.8996 32.3903 96.9583 32.3903H97.0622C97.1209 32.3903 97.1609 32.3636 97.1849 32.3103L99.0004 28.1248C99.0591 27.9861 99.115 27.8742 99.171 27.7889C99.227 27.7035 99.2883 27.6369 99.3576 27.5889C99.427 27.5409 99.5069 27.5063 99.5976 27.4876C99.6882 27.4689 99.7975 27.4609 99.9255 27.4609H100.859C101.16 27.4609 101.365 27.5303 101.469 27.6662C101.573 27.8022 101.626 28.0368 101.626 28.3674V33.374C101.626 33.502 101.56 33.566 101.426 33.566H100.536C100.408 33.566 100.344 33.502 100.344 33.374V28.8206C100.344 28.7619 100.32 28.7326 100.275 28.7326H100.195C100.136 28.7326 100.099 28.7566 100.083 28.8019L98.3206 32.7102C98.2513 32.8675 98.1793 33.0008 98.1073 33.1074C98.0353 33.2141 97.9553 33.3047 97.8727 33.374C97.7874 33.4434 97.6914 33.494 97.5848 33.5233C97.4781 33.5527 97.3502 33.566 97.2062 33.566H96.7877C96.6437 33.566 96.5157 33.5527 96.4091 33.5233C96.3025 33.494 96.2065 33.4434 96.1212 33.374C96.0359 33.3047 95.9585 33.2168 95.8866 33.1074C95.8146 33.0008 95.7426 32.8675 95.6733 32.7102L93.9111 28.8019C93.8924 28.7539 93.8551 28.7326 93.7964 28.7326H93.7191C93.6712 28.7326 93.6498 28.7619 93.6498 28.8206V33.374C93.6498 33.502 93.5858 33.566 93.4579 33.566H92.5674C92.4341 33.566 92.3675 33.502 92.3675 33.374V28.3674C92.3675 28.0368 92.4208 27.8022 92.5248 27.6662C92.6288 27.5303 92.8367 27.4609 93.1433 27.4609H94.0897Z" fill="white"/>
</svg>
