<svg width="82" height="82" viewBox="0 0 82 82" fill="none" xmlns="http://www.w3.org/2000/svg">
<circle cx="41" cy="41" r="41" fill="#3B2416"/>
<path fill-rule="evenodd" clip-rule="evenodd" d="M24.2652 46.9393H28.1898C29.2887 46.9393 30.0737 47.7243 30.0737 48.6662V57.4574C30.0737 58.5563 29.2887 59.3413 28.1898 59.3413H24.2652C23.3233 59.3413 22.3813 58.5563 22.3813 57.4574V48.6662C22.3813 47.7243 23.3233 46.9393 24.2652 46.9393Z" fill="#C7794A"/>
<path fill-rule="evenodd" clip-rule="evenodd" d="M34.4693 41.6018H38.3939C39.3359 41.6018 40.1208 42.3867 40.1208 43.4856V57.4574C40.1208 58.5563 39.3359 59.3413 38.3939 59.3413H34.4693C33.3704 59.3413 32.5854 58.5563 32.5854 57.4574V43.4856C32.5854 42.3867 33.3704 41.6018 34.4693 41.6018Z" fill="#C7794A"/>
<path fill-rule="evenodd" clip-rule="evenodd" d="M44.8304 36.4213H48.7551C49.697 36.4213 50.6389 37.3632 50.6389 38.3051V57.4574C50.6389 58.5563 49.697 59.3413 48.7551 59.3413H44.8304C43.7315 59.3413 42.9466 58.5563 42.9466 57.4574V38.3051C42.9466 37.3632 43.7315 36.4213 44.8304 36.4213Z" fill="#C7794A"/>
<path fill-rule="evenodd" clip-rule="evenodd" d="M55.1915 31.3977H59.1162C60.0581 31.3977 61 32.1826 61 33.2815V57.4574C61 58.5563 60.0581 59.3413 59.1162 59.3413H55.1915C54.0926 59.3413 53.3077 58.5563 53.3077 57.4574V33.2815C53.3077 32.1826 54.0926 31.3977 55.1915 31.3977Z" fill="#C7794A"/>
<path fill-rule="evenodd" clip-rule="evenodd" d="M54.2496 16.955L48.4411 31.3977L45.1444 27.473C38.7079 32.9676 31.1726 36.7352 22.8523 38.6191C19.8696 39.404 18.7707 34.6944 21.9104 34.0665C29.4457 32.3396 36.1961 28.8859 42.0046 24.0193L39.1789 20.7226L54.2496 16.955Z" fill="#C7794A"/>
</svg>
