<svg width="19" height="13" viewBox="0 0 19 13" fill="none" xmlns="http://www.w3.org/2000/svg">
<path d="M9.13202 7.61395L17.8805 0.00425296C17.8663 0.00283525 17.8524 0 17.8382 0H0.4261C0.411618 0 0.397704 0.00283525 0.383789 0.00425296L9.13202 7.61395Z" fill="#3B2416"/>
<path d="M12.2522 6.02763L18.2635 12.0271V0.798828L12.2522 6.02763Z" fill="#3B2416"/>
<path d="M11.6084 6.58789L9.4116 8.49896C9.40848 8.50151 9.40507 8.50237 9.40195 8.50492C9.36645 8.53412 9.32812 8.55709 9.28694 8.57297C9.27956 8.57609 9.27161 8.57807 9.26394 8.58034C9.22134 8.59423 9.17704 8.60331 9.13246 8.60359H9.13218H9.13189C9.08731 8.60331 9.04301 8.59423 9.00042 8.58034C8.99275 8.57779 8.98508 8.5758 8.97742 8.57297C8.93596 8.55681 8.89762 8.53384 8.86241 8.50492C8.85928 8.50237 8.85559 8.50151 8.85275 8.49896L6.65569 6.58789L0.308411 12.9217C0.345895 12.9324 0.384798 12.9398 0.42569 12.9398H17.8375C17.8787 12.9398 17.917 12.9321 17.9548 12.9217L11.6084 6.58789Z" fill="#3B2416"/>
<path d="M0 0.798828V12.0271L6.01106 6.02763L0 0.798828Z" fill="#3B2416"/>
</svg>
