<svg width="20" height="13" viewBox="0 0 20 13" fill="none" xmlns="http://www.w3.org/2000/svg">
<path d="M19.8881 5.07901C20.0268 4.47604 20.0367 3.84682 19.917 3.2391C19.7973 2.63138 19.5513 2.06112 19.1975 1.5716C18.8436 1.08207 18.3914 0.686132 17.875 0.413826C17.3586 0.14152 16.7917 -5.0281e-07 16.2172 1.24619e-06H0.994588C0.859434 -0.000221415 0.72566 0.0293959 0.601459 0.0870406C0.477258 0.144685 0.365243 0.229144 0.272273 0.335244C0.179304 0.441344 0.107338 0.566852 0.0607805 0.704083C0.0142234 0.841314 -0.00594419 0.98738 0.00151274 1.13333C0.121154 3.0949 0.431831 5.03734 0.928383 6.9284C1.30153 8.34738 2.03652 9.62407 3.04923 10.6123H1.73882C1.44608 10.6123 1.16532 10.7381 0.958321 10.962C0.751319 11.1859 0.635026 11.4896 0.635026 11.8062C0.635026 12.1228 0.751319 12.4265 0.958321 12.6503C1.16532 12.8742 1.44608 13 1.73882 13H14.1534C14.4461 13 14.7269 12.8742 14.9339 12.6503C15.1409 12.4265 15.2572 12.1228 15.2572 11.8062C15.2572 11.4896 15.1409 11.1859 14.9339 10.962C14.7269 10.7381 14.4461 10.6123 14.1534 10.6123H12.8407C13.5414 9.92819 14.1121 9.10294 14.521 8.18272H16.2172C17.0616 8.18272 17.8817 7.87717 18.5469 7.31472C19.2122 6.75227 19.6843 5.96526 19.8881 5.07901ZM17.6645 4.48148C17.5866 4.8332 17.4014 5.14628 17.1388 5.37025C16.8762 5.59422 16.5516 5.71603 16.2172 5.71605H15.2515C15.4841 4.6521 15.6602 3.57461 15.7788 2.48889H16.2172C16.4437 2.48874 16.6673 2.54444 16.871 2.65175C17.0747 2.75906 17.253 2.91517 17.3926 3.10821C17.5321 3.30125 17.6291 3.52615 17.6762 3.76581C17.7234 4.00548 17.7194 4.25361 17.6645 4.49136V4.48148Z" fill="#3B2416"/>
</svg>
