<svg width="13" height="16" viewBox="0 0 13 16" fill="none" xmlns="http://www.w3.org/2000/svg">
<path d="M5.80353 15.708C6.14053 16.0973 6.7697 16.0973 7.10685 15.708C8.45519 14.1072 11.4662 10.4731 12.2752 9.06698C13.264 7.31482 13.219 5.28137 12.2752 3.44264C10.6573 0.349337 6.74731 -0.883768 3.55642 0.673741C0.343139 2.23125 -0.89285 6.10339 0.680125 9.06698C1.37669 10.4731 4.43279 14.1073 5.80353 15.708ZM6.45527 3.83202C7.84843 3.83202 8.97199 4.91363 8.97199 6.25477C8.97199 7.59592 7.84843 8.67753 6.45527 8.67753C5.0621 8.67753 3.93855 7.59592 3.93855 6.25477C3.93839 4.91363 5.08453 3.83202 6.45527 3.83202Z" fill="#3B2416"/>
</svg>
