<svg width="18" height="19" viewBox="0 0 18 19" fill="none" xmlns="http://www.w3.org/2000/svg">
<path d="M9 0C4.02944 0 0 4.25329 0 9.5C0 14.7467 4.02944 19 9 19C13.9706 19 18 14.7467 18 9.5C18 4.25329 13.9706 0 9 0ZM5.76562 3.77356C5.95105 3.76202 6.11866 3.87901 6.24573 4.08666L7.47619 6.54979C7.60575 6.84166 7.53213 7.15418 7.33887 7.36272L6.77527 7.95763C6.74049 8.00795 6.7176 8.06461 6.71704 8.12693C6.93318 9.01004 7.5888 9.82463 8.16726 10.3848C8.74569 10.945 9.3674 11.7034 10.1744 11.8831C10.2742 11.9125 10.3964 11.923 10.4678 11.853L11.1226 11.1491C11.3486 10.9682 11.6755 10.8806 11.9169 11.0285H11.9278L14.1482 12.4119C14.4741 12.6276 14.5078 13.0444 14.2745 13.2979L12.7452 14.8994C12.5194 15.1439 12.2194 15.2261 11.9279 15.2264C10.6387 15.1857 9.42051 14.5178 8.41995 13.8314C6.7776 12.5702 5.2711 11.006 4.32533 9.11615C3.96259 8.32369 3.53649 7.31258 3.57716 6.42806C3.58079 6.09531 3.66607 5.76932 3.88807 5.55484L5.41737 3.94058C5.5365 3.83358 5.65435 3.78049 5.76562 3.77356Z" fill="#3B2416"/>
</svg>
