<svg width="34" height="33" viewBox="0 0 34 33" fill="none" xmlns="http://www.w3.org/2000/svg">
<path d="M22.3359 16.2736C22.3359 17.62 21.7823 18.9111 20.7969 19.8631C19.8115 20.8151 18.475 21.35 17.0814 21.35C15.6878 21.35 14.3513 20.8151 13.3659 19.8631C12.3805 18.9111 11.8269 17.62 11.8269 16.2736C11.8269 15.9843 11.8585 15.7017 11.9128 15.4276H10.0755V22.191C10.0755 22.6614 10.4695 23.0421 10.9565 23.0421H23.2081C23.4414 23.0416 23.6651 22.9518 23.8299 22.7922C23.9948 22.6326 24.0873 22.4164 24.0873 22.191V15.4276H22.25C22.3043 15.7017 22.3359 15.9843 22.3359 16.2736ZM17.0814 19.6579C17.5415 19.6577 17.9971 19.5701 18.4222 19.3999C18.8473 19.2296 19.2335 18.9802 19.5587 18.6658C19.884 18.3514 20.142 17.9782 20.318 17.5674C20.494 17.1567 20.5845 16.7165 20.5844 16.2719C20.5843 15.8274 20.4935 15.3873 20.3173 14.9766C20.1411 14.5659 19.8829 14.1928 19.5575 13.8786C19.2321 13.5643 18.8457 13.3151 18.4206 13.1451C17.9954 12.9751 17.5398 12.8876 17.0796 12.8877C16.1504 12.8879 15.2592 13.2448 14.6023 13.8798C13.9454 14.5148 13.5764 15.3759 13.5767 16.2736C13.5769 17.1714 13.9463 18.0323 14.6036 18.667C15.2608 19.3017 16.1521 19.6581 17.0814 19.6579ZM21.285 12.7202H23.385C23.5245 12.7202 23.6583 12.6668 23.7572 12.5716C23.856 12.4765 23.9117 12.3474 23.9122 12.2126V10.1837C23.9122 10.0486 23.8566 9.91909 23.7578 9.82358C23.6589 9.72806 23.5248 9.6744 23.385 9.6744H21.285C21.1451 9.6744 21.011 9.72806 20.9122 9.82358C20.8133 9.91909 20.7578 10.0486 20.7578 10.1837V12.2126C20.7595 12.4918 20.996 12.7202 21.285 12.7202ZM17.0814 0.0293617C12.622 0.0293617 8.34521 1.74081 5.19193 4.7872C2.03865 7.83359 0.267151 11.9654 0.267151 16.2736C0.267151 20.5819 2.03865 24.7137 5.19193 27.7601C8.34521 30.8065 12.622 32.5179 17.0814 32.5179C19.2895 32.5179 21.4759 32.0977 23.5159 31.2814C25.5559 30.465 27.4095 29.2685 28.9709 27.7601C30.5322 26.2517 31.7707 24.4609 32.6157 22.4901C33.4607 20.5192 33.8956 18.4069 33.8956 16.2736C33.8956 14.1404 33.4607 12.0281 32.6157 10.0572C31.7707 8.08638 30.5322 6.29562 28.9709 4.7872C27.4095 3.27878 25.5559 2.08223 23.5159 1.26588C21.4759 0.449532 19.2895 0.0293617 17.0814 0.0293617ZM25.8388 22.8543C25.8388 23.8881 24.9631 24.7342 23.8929 24.7342H10.2699C9.19972 24.7342 8.32398 23.8881 8.32398 22.8543V9.69301C8.32398 8.65913 9.19972 7.81308 10.2699 7.81308H23.8929C24.9631 7.81308 25.8388 8.65913 25.8388 9.69301V22.8543Z" fill="#C7794A"/>
</svg>
