<svg width="34" height="34" viewBox="0 0 34 34" fill="none" xmlns="http://www.w3.org/2000/svg">
<path d="M17.1858 0.0293617C7.8994 0.0293617 0.371521 7.42965 0.371521 16.5586C0.371521 25.6876 7.8994 33.0879 17.1858 33.0879C26.4721 33.0879 34 25.6876 34 16.5586C34 7.42965 26.4721 0.0293617 17.1858 0.0293617ZM13.0698 23.4097H9.6649V12.6381H13.0698V23.4097ZM11.3463 11.3157C10.2709 11.3157 9.57557 10.5668 9.57557 9.64044C9.57557 8.69517 10.2919 7.96857 11.3901 7.96857C12.4883 7.96857 13.1609 8.69517 13.1819 9.64044C13.1819 10.5668 12.4883 11.3157 11.3463 11.3157ZM25.5053 23.4097H22.1004V17.4402C22.1004 16.0507 21.6065 15.1071 20.3752 15.1071C19.4347 15.1071 18.876 15.7459 18.629 16.3606C18.5379 16.5793 18.5151 16.8892 18.5151 17.1974V23.4079H15.1085V16.0731C15.1085 14.7284 15.0647 13.604 15.0192 12.6364H17.9774L18.1333 14.1326H18.2016C18.65 13.4301 19.7482 12.3936 21.5855 12.3936C23.8256 12.3936 25.5053 13.8692 25.5053 17.0407V23.4097Z" fill="#C7794A"/>
</svg>
