<svg width="150" height="49" viewBox="0 0 150 49" fill="none" xmlns="http://www.w3.org/2000/svg">
<path d="M64.1788 19.9613H61.2681C61.1344 19.9613 61.0156 20.0059 60.9116 20.1098C60.8077 20.2138 60.7631 20.3177 60.7631 20.4662V30.8616C60.7631 30.9952 60.7186 31.1141 60.6295 31.218C60.5404 31.322 60.4216 31.3665 60.2731 31.3665H57.1544C57.0208 31.3665 56.902 31.322 56.798 31.218C56.6941 31.1141 56.6495 31.0101 56.6495 30.8616V20.4662C56.6495 20.3326 56.605 20.2138 56.5159 20.1098C56.4268 20.0059 56.308 19.9613 56.1595 19.9613H53.2042C53.0705 19.9613 52.9517 19.9168 52.8478 19.8128C52.7438 19.7088 52.6993 19.6049 52.6993 19.4564V16.6348C52.6993 16.5011 52.7438 16.3823 52.8478 16.2784C52.9517 16.1744 53.0557 16.1299 53.2042 16.1299H64.1788C64.3273 16.1299 64.4461 16.1744 64.5352 16.2784C64.6243 16.3823 64.6688 16.4863 64.6688 16.6348V19.4564C64.6688 19.59 64.6243 19.7088 64.5352 19.8128C64.4609 19.9168 64.3273 19.9613 64.1788 19.9613Z" fill="#F5E7DA"/>
<path d="M70.4012 31.3517H67.2825C67.134 31.3517 67.0152 31.3071 66.9261 31.2032C66.837 31.0992 66.7925 30.9953 66.7925 30.8468V16.6497C66.7925 16.516 66.837 16.3972 66.9261 16.2932C67.0152 16.1893 67.134 16.1447 67.2825 16.1447H70.4012C70.5348 16.1447 70.6536 16.1893 70.7576 16.2932C70.8467 16.3972 70.9061 16.5012 70.9061 16.6497V30.8468C70.9061 30.9804 70.8615 31.0992 70.7576 31.2032C70.6536 31.3071 70.5348 31.3517 70.4012 31.3517Z" fill="#F5E7DA"/>
<path d="M78.4946 16.62C78.554 16.5012 78.6431 16.3824 78.7768 16.2933C78.9104 16.2042 79.0441 16.1596 79.2075 16.1596H82.1182C82.2518 16.1596 82.3855 16.2042 82.5192 16.2933C82.6528 16.3824 82.7419 16.4863 82.8013 16.62L88.8752 30.7428C88.9346 30.8616 88.9197 30.9953 88.8455 31.1438C88.7712 31.2775 88.6227 31.3517 88.4 31.3517H84.8507C84.7022 31.3517 84.5537 31.3072 84.42 31.2181C84.2864 31.129 84.1824 31.025 84.123 30.8913L83.5587 29.6439C83.4844 29.5251 83.3953 29.4063 83.2617 29.3172C83.128 29.2281 82.9943 29.1835 82.8607 29.1835H78.4798C78.3313 29.1835 78.1828 29.2281 78.0491 29.3172C77.9155 29.4063 77.8264 29.5102 77.767 29.6439L77.1878 30.8913C77.1284 31.0101 77.0393 31.129 76.9057 31.2181C76.772 31.3072 76.6383 31.3517 76.5047 31.3517H72.9257C72.8514 31.3517 72.7772 31.3369 72.7029 31.3072C72.6287 31.2775 72.5693 31.2329 72.5099 31.1883C72.4653 31.1289 72.4356 31.0695 72.4208 30.9804C72.4059 30.8913 72.4208 30.8022 72.4802 30.6834L78.4946 16.62ZM79.7272 25.6639H81.5836C81.7172 25.6639 81.8211 25.6194 81.8805 25.5303C81.94 25.4412 81.94 25.3372 81.8657 25.2036C81.7321 24.862 81.5539 24.4462 81.3608 23.9858C81.1678 23.5255 80.9895 23.0948 80.8262 22.6938C80.7668 22.575 80.7074 22.5008 80.6331 22.5008C80.5589 22.5008 80.4994 22.5602 80.44 22.6938L79.4005 25.2036C79.3411 25.3224 79.3411 25.4412 79.4005 25.5303C79.4599 25.6194 79.5639 25.6639 79.7272 25.6639Z" fill="#F5E7DA"/>
<path d="M107.602 16.6645V30.8616C107.602 30.9953 107.557 31.1141 107.453 31.218C107.349 31.322 107.245 31.3666 107.097 31.3666H103.978C103.845 31.3666 103.726 31.322 103.622 31.218C103.533 31.1141 103.473 31.0101 103.473 30.8616V24.164C103.473 24.0304 103.414 23.9561 103.28 23.9413C103.161 23.9264 103.057 23.971 102.968 24.0898L99.4636 29.7181C99.3894 29.8221 99.2854 29.8815 99.1369 29.8815C98.9884 29.8815 98.8696 29.8221 98.7805 29.7181L95.2758 24.0898C95.2015 23.9858 95.1124 23.9264 94.9787 23.9413C94.8599 23.9561 94.7857 24.0304 94.7857 24.164V30.8468C94.7857 30.9804 94.7412 31.0992 94.6372 31.2032C94.5481 31.3071 94.4293 31.3517 94.2808 31.3517H91.1621C91.0285 31.3517 90.9097 31.3071 90.8057 31.2032C90.7166 31.0992 90.6572 30.9953 90.6572 30.8468V16.6497C90.6572 16.516 90.7018 16.3972 90.8057 16.2932C90.8948 16.1893 91.0136 16.1447 91.1621 16.1447H94.058C94.1917 16.1447 94.3402 16.1893 94.4887 16.2635C94.6372 16.3526 94.756 16.4418 94.8154 16.5606L98.8102 22.4265C98.8993 22.5453 98.9884 22.5899 99.1072 22.5899C99.2111 22.5899 99.3151 22.5305 99.3745 22.4265L103.369 16.5606C103.458 16.4566 103.562 16.3526 103.726 16.2635C103.874 16.1744 104.023 16.1447 104.156 16.1447H107.052C107.186 16.1447 107.305 16.1893 107.409 16.2932C107.557 16.412 107.602 16.5308 107.602 16.6645Z" fill="#F5E7DA"/>
<path d="M115.458 16.62C115.517 16.5012 115.606 16.3824 115.74 16.2933C115.874 16.2042 116.007 16.1596 116.171 16.1596H119.081C119.215 16.1596 119.349 16.2042 119.482 16.2933C119.616 16.3824 119.705 16.4863 119.764 16.62L125.838 30.7428C125.898 30.8616 125.883 30.9953 125.809 31.1438C125.734 31.2775 125.586 31.3517 125.363 31.3517H121.814C121.665 31.3517 121.517 31.3072 121.383 31.2181C121.249 31.129 121.145 31.025 121.086 30.8913L120.522 29.6439C120.447 29.5251 120.358 29.4063 120.225 29.3172C120.091 29.2281 119.957 29.1835 119.824 29.1835H115.443C115.294 29.1835 115.146 29.2281 115.012 29.3172C114.879 29.4063 114.789 29.5102 114.73 29.6439L114.151 30.8913C114.091 31.0101 114.002 31.129 113.869 31.2181C113.735 31.3072 113.601 31.3517 113.468 31.3517H109.889C109.815 31.3517 109.74 31.3369 109.666 31.3072C109.592 31.2775 109.532 31.2329 109.473 31.1883C109.428 31.1289 109.399 31.0695 109.384 30.9804C109.369 30.8913 109.384 30.8022 109.443 30.6834L115.458 16.62ZM116.675 25.6639H118.532C118.665 25.6639 118.769 25.6194 118.829 25.5303C118.888 25.4412 118.888 25.3372 118.814 25.2036C118.68 24.862 118.502 24.4462 118.309 23.9858C118.116 23.5255 117.938 23.0948 117.774 22.6938C117.715 22.575 117.656 22.5008 117.581 22.5008C117.507 22.5008 117.448 22.5602 117.388 22.6938L116.349 25.2036C116.289 25.3224 116.289 25.4412 116.349 25.5303C116.423 25.6194 116.527 25.6639 116.675 25.6639Z" fill="#F5E7DA"/>
<path d="M136.011 19.9613H133.1C132.966 19.9613 132.848 20.0059 132.744 20.1098C132.64 20.2138 132.595 20.3177 132.595 20.4662V30.8616C132.595 30.9952 132.551 31.1141 132.461 31.218C132.372 31.322 132.254 31.3665 132.105 31.3665H128.986C128.853 31.3665 128.734 31.322 128.63 31.218C128.526 31.1141 128.482 31.0101 128.482 30.8616V20.4662C128.482 20.3326 128.437 20.2138 128.348 20.1098C128.259 20.0059 128.14 19.9613 127.991 19.9613H125.036C124.903 19.9613 124.784 19.9168 124.68 19.8128C124.576 19.7088 124.531 19.6049 124.531 19.4564V16.6348C124.531 16.5011 124.576 16.3823 124.68 16.2784C124.784 16.1744 124.888 16.1299 125.036 16.1299H136.011C136.159 16.1299 136.278 16.1744 136.367 16.2784C136.456 16.3823 136.501 16.4863 136.501 16.6348V19.4564C136.501 19.59 136.456 19.7088 136.367 19.8128C136.278 19.9168 136.159 19.9613 136.011 19.9613Z" fill="#F5E7DA"/>
<path d="M142.53 20.4662V21.3424C142.53 21.476 142.575 21.5948 142.679 21.6988C142.783 21.8027 142.887 21.8473 143.035 21.8473H148.663C148.797 21.8473 148.916 21.8918 149.02 21.9958C149.124 22.0997 149.168 22.2037 149.168 22.3522V25.2184C149.168 25.352 149.124 25.4708 149.02 25.5748C148.916 25.6787 148.812 25.7233 148.663 25.7233H143.035C142.901 25.7233 142.783 25.7678 142.679 25.8718C142.575 25.9757 142.53 26.0797 142.53 26.2282V27.0153C142.53 27.1489 142.575 27.2677 142.679 27.3717C142.783 27.4757 142.887 27.5202 143.035 27.5202H149.495C149.629 27.5202 149.748 27.5648 149.852 27.6687C149.955 27.7727 150 27.8766 150 28.0251V30.8913C150 31.0249 149.955 31.1437 149.852 31.2477C149.748 31.3516 149.644 31.3962 149.495 31.3962H138.921C138.788 31.3962 138.669 31.3516 138.565 31.2477C138.461 31.1437 138.417 31.0398 138.417 30.8913V16.6793C138.417 16.5457 138.461 16.4268 138.565 16.3229C138.669 16.2189 138.773 16.1744 138.921 16.1744H149.495C149.629 16.1744 149.748 16.2189 149.852 16.3229C149.955 16.4268 150 16.5308 150 16.6793V19.5009C150 19.6346 149.955 19.7534 149.852 19.8573C149.748 19.9613 149.644 20.0058 149.495 20.0058H143.035C142.901 20.0058 142.783 20.0504 142.679 20.1543C142.575 20.2137 142.53 20.3325 142.53 20.4662Z" fill="#F5E7DA"/>
<path d="M1.15289 32.4357C1.15289 32.4357 5.20708 42.742 2.65279 46.7219C2.65279 46.7219 6.21692 45.6379 7.36041 41.6579" fill="#F7AE1A"/>
<path d="M30.3491 19.9315C30.3491 19.9315 32.5767 18.4465 34.2251 19.9315L33.5717 20.7335C33.5717 20.7335 32.6806 19.8424 30.9728 20.7335L30.3491 19.9315Z" fill="#F7AE1A"/>
<path d="M42.5117 9.65498C39.304 5.67503 40.0614 1.13078 40.0614 1.13078C37.5814 2.60098 36.8982 5.63049 37.7596 7.44226C38.0714 7.94718 38.3684 8.46694 38.6655 9.03126C38.6655 9.03126 38.2348 8.43725 37.7596 7.44226C29.1165 -4.75004 15.365 1.70995 15.365 1.70995C8.10304 5.24438 4.15279 9.9817 2.08856 14.6151C12.0384 8.5115 20.0577 11.6895 20.0577 11.6895C21.3794 9.37283 23.0278 8.61544 23.0278 8.61544C23.0278 8.61544 26.4286 12.6845 34.834 14.8378C34.834 14.8378 37.1507 16.2635 36.7943 22.8868C36.7943 22.8868 37.8635 25.0253 39.8386 25.5748C39.8386 25.5748 40.195 26.8222 37.1507 27.535C37.1507 27.535 36.7348 33.2525 35.1904 34.1287C34.1509 34.8118 30.7501 35.0494 28.2255 35.9404C26.4286 36.5642 26.2504 41.4351 26.978 43.44C26.978 43.44 28.4334 43.3509 31.4332 45.7121C31.4332 45.7121 38.3981 48.6674 44.1601 40.9154C44.6056 40.3065 43.0166 37.9304 42.6157 36.9354C40.0614 30.5497 44.2938 22.2185 45.4373 21.6988C46.6699 19.6197 45.3036 12.9963 42.5117 9.65498ZM43.5364 20.3622L43.5513 17.4961C43.5513 17.4961 44.5165 18.7732 44.472 19.5157C44.4274 20.2583 43.5364 20.3622 43.5364 20.3622Z" fill="#F7AE1A"/>
<path d="M16.3006 34.6188C17.548 31.7972 18.2312 29.5696 18.5727 27.7578C18.5282 27.743 11.2662 25.0402 0.959961 32.0348C0.989662 32.1685 1.00452 32.3021 1.03422 32.4506C1.31638 33.7575 1.7322 35.0197 2.26682 36.2226C3.2024 39.5789 4.07857 44.3311 2.53411 46.7517C2.53411 46.7517 5.40028 45.8755 6.81108 42.8312C10.8504 46.8705 16.3303 49.2763 21.6022 48.9347C12.5285 46.7071 13.4938 40.9748 16.3006 34.6188Z" fill="#F7AE1A"/>
<path d="M0.350974 20.7186C0.380675 20.6889 0.499481 20.5999 0.677688 20.4811C2.3558 19.293 9.85535 14.4517 18.5726 16.2932V16.3229C18.7508 15.016 19.0627 13.9171 19.4488 12.9815L19.4339 12.9964C10.6573 10.1302 1.25687 16.8427 1.24202 16.8575C0.81135 18.1792 0.514346 19.4861 0.321289 20.7335L0.350974 20.7186Z" fill="#F7AE1A"/>
<path d="M18.736 26.2876V26.3025H18.7806C18.9439 24.8026 18.8697 23.6442 18.736 22.6641C18.7212 22.6641 9.78115 20.2137 0.172852 27.639L0.64808 30.6537V30.5349C0.64808 30.5349 9.17227 24.1788 18.3945 26.1985C18.5133 26.243 18.6321 26.2579 18.736 26.2876Z" fill="#F7AE1A"/>
<path d="M18.439 17.7337C18.439 17.7337 10.1227 15.0606 0.113446 22.6789V22.6641L0.0837387 22.6789C-0.00536456 23.8224 -0.0202278 24.8917 0.0243238 25.8718C0.0540249 25.8569 9.1574 19.0405 18.4835 21.2087C18.3202 20.3325 18.2459 18.5208 18.439 17.7337Z" fill="#F7AE1A"/>
<path d="M80.5885 39.2373C81.4005 39.2373 82.0587 38.5791 82.0587 37.7671C82.0587 36.9551 81.4005 36.2969 80.5885 36.2969C79.7765 36.2969 79.1183 36.9551 79.1183 37.7671C79.1183 38.5791 79.7765 39.2373 80.5885 39.2373Z" fill="#F7AE1A"/>
<path d="M122.111 39.2373C122.923 39.2373 123.581 38.5791 123.581 37.7671C123.581 36.9551 122.923 36.2969 122.111 36.2969C121.299 36.2969 120.64 36.9551 120.64 37.7671C120.64 38.5791 121.299 39.2373 122.111 39.2373Z" fill="#F7AE1A"/>
<path d="M90.0632 38.6135C90.2117 38.6135 90.3602 38.673 90.4641 38.7769C90.5829 38.8957 90.6424 39.0294 90.6424 39.1927C90.6424 39.2521 90.6275 39.3115 90.6127 39.3561C90.5978 39.4155 90.5681 39.46 90.5384 39.5194C90.3751 39.8164 90.1374 40.0541 89.8256 40.2323C89.5137 40.4105 89.1722 40.4996 88.7861 40.4996H88.7118C88.4296 40.4996 88.1475 40.455 87.895 40.3511C87.6426 40.2471 87.4198 40.1135 87.2267 39.9204C87.0337 39.7422 86.8852 39.5194 86.7664 39.267C86.6476 39.0145 86.5882 38.7472 86.5882 38.4651V37.0542C86.5882 36.7572 86.6475 36.4899 86.7515 36.2375C86.8555 35.985 87.004 35.7622 87.197 35.5692C87.3901 35.3761 87.6128 35.2276 87.8653 35.1237C88.1177 35.0197 88.3999 34.9603 88.7118 34.9603C88.8751 34.9603 89.0237 34.9752 89.1573 35.0049C89.3949 35.0494 89.6177 35.1237 89.8108 35.2425C90.1226 35.4207 90.3602 35.6583 90.5384 35.9702C90.5533 36.0147 90.583 36.0593 90.5978 36.1187C90.6127 36.1781 90.6275 36.2375 90.6275 36.282C90.6275 36.4454 90.5681 36.579 90.4493 36.6978C90.3305 36.8166 90.1969 36.876 90.0335 36.876C89.8998 36.876 89.7959 36.8463 89.7216 36.7721C89.6474 36.6978 89.5731 36.6236 89.4989 36.5196C89.4246 36.4008 89.3355 36.3117 89.2167 36.2375C89.1127 36.1781 88.994 36.1335 88.8306 36.089C88.7861 36.089 88.7266 36.0741 88.6821 36.0741C88.5484 36.0741 88.4148 36.1038 88.296 36.1484C88.1772 36.1929 88.0732 36.2672 87.999 36.3414C87.9099 36.4157 87.8356 36.5196 87.7911 36.6384C87.7465 36.7572 87.7168 36.876 87.7168 37.0097V38.4056C87.7168 38.5393 87.7316 38.6581 87.7762 38.7769C87.8207 38.8957 87.895 38.9997 87.9841 39.0888C88.0732 39.1779 88.1772 39.2521 88.296 39.2967C88.4148 39.3412 88.5485 39.3709 88.697 39.3709H88.8009C88.9791 39.3412 89.1127 39.2818 89.2167 39.2224C89.3355 39.1482 89.4246 39.0591 89.4989 38.9403C89.5583 38.8363 89.6325 38.762 89.6919 38.7026C89.7959 38.6432 89.9147 38.6135 90.0632 38.6135Z" fill="#F5E7DA"/>
<path d="M94.0729 40.5144C93.7907 40.5144 93.5085 40.4699 93.2561 40.3659C93.0036 40.262 92.7809 40.1283 92.5878 39.9352C92.3948 39.757 92.2463 39.5343 92.1275 39.2818C92.0087 39.0293 91.9492 38.762 91.9492 38.4799V37.0691C91.9492 36.7721 92.0086 36.5048 92.1126 36.2523C92.2166 35.9998 92.365 35.7771 92.5581 35.584C92.7512 35.391 92.9739 35.2425 93.2264 35.1385C93.4788 35.0346 93.761 34.9752 94.0729 34.9752C94.355 34.9752 94.6223 35.0197 94.8748 35.1237C95.1272 35.2276 95.35 35.3613 95.5431 35.5543C95.7361 35.7325 95.8846 35.9553 96.0034 36.2078C96.1222 36.4602 96.1816 36.7275 96.1816 37.0097V38.4205C96.1816 38.7027 96.1223 38.9848 96.0183 39.2373C95.9143 39.4897 95.7658 39.7125 95.5728 39.9056C95.3797 40.0986 95.157 40.2471 94.9045 40.351C94.652 40.455 94.3699 40.5144 94.0729 40.5144ZM95.053 37.0691C95.053 36.9354 95.0233 36.8166 94.9787 36.6978C94.9342 36.579 94.86 36.4751 94.7709 36.386C94.6818 36.2969 94.5778 36.2375 94.459 36.178C94.3402 36.1186 94.2065 36.1038 94.0729 36.1038C93.9392 36.1038 93.8056 36.1335 93.6868 36.178C93.5679 36.2226 93.464 36.2969 93.3897 36.3711C93.3155 36.4454 93.2264 36.5493 93.1818 36.6681C93.1373 36.7869 93.1076 36.9057 93.1076 37.0394V38.4353C93.1076 38.569 93.1224 38.6878 93.167 38.8066C93.2115 38.9254 93.2858 39.0294 93.3749 39.1185C93.464 39.2076 93.5679 39.2818 93.6868 39.3264C93.8056 39.3709 93.9392 39.4006 94.0877 39.4006C94.2214 39.4006 94.3402 39.3709 94.459 39.3264C94.5778 39.2818 94.6817 39.2076 94.756 39.1333C94.8451 39.0442 94.9045 38.9551 94.9639 38.8363C95.0084 38.7175 95.0382 38.5987 95.0382 38.465L95.053 37.0691Z" fill="#F5E7DA"/>
<path d="M98.7658 36.1335V37.4255H100.073C100.236 37.4255 100.384 37.4849 100.488 37.6037C100.592 37.7225 100.652 37.8562 100.652 38.0195C100.652 38.1829 100.592 38.3165 100.488 38.4353C100.384 38.5541 100.236 38.5987 100.073 38.5987H98.7658V39.9204C98.7658 40.0837 98.7063 40.2323 98.6024 40.3362C98.4836 40.455 98.3499 40.4996 98.1866 40.4996C98.0232 40.4996 97.8747 40.4402 97.7708 40.3362C97.652 40.2174 97.6074 40.0837 97.6074 39.9204V35.5543C97.6074 35.4058 97.6668 35.2722 97.7708 35.1534C97.8896 35.0346 98.0232 34.9752 98.1866 34.9752H100.667C100.83 34.9752 100.964 35.0346 101.082 35.1534C101.201 35.2722 101.246 35.4058 101.246 35.5692C101.246 35.7325 101.186 35.8811 101.082 35.985C100.964 36.089 100.83 36.1484 100.667 36.1484H98.7658V36.1335Z" fill="#F5E7DA"/>
<path d="M103.651 36.1335V37.4255H104.958C105.122 37.4255 105.27 37.4849 105.374 37.6037C105.478 37.7225 105.537 37.8562 105.537 38.0195C105.537 38.1829 105.478 38.3165 105.374 38.4353C105.27 38.5541 105.122 38.5987 104.958 38.5987H103.651V39.9204C103.651 40.0837 103.592 40.2323 103.488 40.3362C103.369 40.455 103.236 40.4996 103.072 40.4996C102.909 40.4996 102.76 40.4402 102.656 40.3362C102.538 40.2174 102.493 40.0837 102.493 39.9204V35.5543C102.493 35.4058 102.553 35.2722 102.656 35.1534C102.775 35.0346 102.909 34.9752 103.072 34.9752H105.552C105.716 34.9752 105.849 35.0346 105.968 35.1534C106.087 35.2722 106.132 35.4058 106.132 35.5692C106.132 35.7325 106.072 35.8811 105.968 35.985C105.849 36.089 105.716 36.1484 105.552 36.1484H103.651V36.1335Z" fill="#F5E7DA"/>
<path d="M110.423 39.3412C110.587 39.3412 110.72 39.4006 110.839 39.5194C110.958 39.6382 111.002 39.7719 111.002 39.9204C111.002 40.0837 110.943 40.2323 110.839 40.3362C110.72 40.455 110.587 40.4996 110.423 40.4996H107.943C107.795 40.4996 107.661 40.4402 107.542 40.3362C107.423 40.2174 107.364 40.0837 107.364 39.9204V35.5543C107.364 35.4058 107.424 35.2722 107.527 35.1534C107.631 35.0346 107.78 34.9752 107.943 34.9752H110.423C110.587 34.9752 110.72 35.0346 110.839 35.1534C110.958 35.2722 111.002 35.4058 111.002 35.5692C111.002 35.7325 110.943 35.8811 110.839 35.985C110.72 36.089 110.587 36.1484 110.423 36.1484H108.508V37.1433H109.829C109.978 37.1433 110.126 37.2027 110.23 37.3215C110.349 37.4404 110.408 37.574 110.408 37.7374C110.408 37.9007 110.349 38.0344 110.23 38.1532C110.111 38.272 109.978 38.3165 109.829 38.3165H108.508V39.3561H110.423V39.3412Z" fill="#F5E7DA"/>
<path d="M115.517 39.3412C115.68 39.3412 115.814 39.4006 115.933 39.5194C116.052 39.6382 116.096 39.7719 116.096 39.9204C116.096 40.0837 116.037 40.2323 115.933 40.3362C115.814 40.455 115.68 40.4996 115.517 40.4996H113.037C112.888 40.4996 112.755 40.4402 112.636 40.3362C112.517 40.2174 112.458 40.0837 112.458 39.9204V35.5543C112.458 35.4058 112.517 35.2722 112.621 35.1534C112.725 35.0346 112.874 34.9752 113.037 34.9752H115.517C115.68 34.9752 115.814 35.0346 115.933 35.1534C116.052 35.2722 116.096 35.4058 116.096 35.5692C116.096 35.7325 116.037 35.8811 115.933 35.985C115.814 36.089 115.68 36.1484 115.517 36.1484H113.601V37.1433H114.923C115.072 37.1433 115.22 37.2027 115.324 37.3215C115.443 37.4404 115.502 37.574 115.502 37.7374C115.502 37.9007 115.443 38.0344 115.324 38.1532C115.205 38.272 115.072 38.3165 114.923 38.3165H113.601V39.3561H115.517V39.3412Z" fill="#F5E7DA"/>
</svg>
