<svg width="82" height="82" viewBox="0 0 82 82" fill="none" xmlns="http://www.w3.org/2000/svg">
<circle cx="41" cy="41" r="41" fill="#3B2416"/>
<path d="M47.7167 37.2072C47.7167 37.2072 49.7505 35.8554 51.2606 37.2072L50.6639 37.9379C50.6639 37.9379 49.8479 37.122 48.2891 37.9379L47.7167 37.2072Z" fill="#C7794A"/>
<path d="M58.8356 27.8298C55.9006 24.2007 56.6069 20.0357 56.6069 20.0357C54.3417 21.3753 53.7207 24.1398 54.5001 25.796C54.7802 26.2588 55.0603 26.7338 55.3282 27.2453C55.3282 27.2453 54.9263 26.6972 54.5001 25.796C46.6085 14.665 34.0404 20.5594 34.0404 20.5594C27.4154 23.7866 23.8106 28.1099 21.9108 32.348C30.9959 26.7825 38.3272 29.6688 38.3272 29.6688C39.5451 27.5497 41.043 26.8556 41.043 26.8556C41.043 26.8556 44.1485 30.57 51.8208 32.5307C51.8208 32.5307 53.9399 33.8337 53.6111 39.8742C53.6111 39.8742 54.5853 41.8349 56.3877 42.3221C56.3877 42.3221 56.7165 43.4668 53.9399 44.1123C53.9399 44.1123 53.5623 49.3368 52.1497 50.1284C51.1997 50.7495 48.0943 50.9809 45.7804 51.7725C44.1363 52.3448 43.9658 56.7899 44.6356 58.6289C44.6356 58.6289 45.9631 58.5436 48.7032 60.6992C48.7032 60.6992 55.0603 63.4028 60.3335 56.315C60.7476 55.7669 59.2862 53.587 58.9208 52.6737C56.5826 46.8402 60.4553 39.2409 61.4904 38.766C62.6352 36.9271 61.3808 30.8866 58.8356 27.8298ZM59.7733 37.609L59.7855 34.9907C59.7855 34.9907 60.6745 36.1598 60.6258 36.8296C60.5771 37.5116 59.7733 37.609 59.7733 37.609Z" fill="#C7794A"/>
<path d="M34.8929 50.6399C36.0255 48.0581 36.6588 46.0243 36.9754 44.368C36.9389 44.3558 30.3139 41.8836 20.8878 48.2651C20.9122 48.3869 20.9365 48.5208 20.9609 48.6426C21.2166 49.8361 21.6064 50.9808 22.0813 52.0891C22.9338 55.158 23.7376 59.4935 22.3249 61.6978C22.3249 61.6978 24.931 60.9062 26.2341 58.1174C29.9241 61.8074 34.9295 64.0117 39.7521 63.6951C31.4464 61.6734 32.3233 56.4368 34.8929 50.6399Z" fill="#C7794A"/>
<path d="M20.3276 37.9256C20.3641 37.9013 20.4616 37.8282 20.6321 37.7064C22.1665 36.6225 29.0108 32.1896 36.9754 33.8824V33.9068C37.1337 32.7133 37.426 31.7025 37.767 30.8622L37.7548 30.8744C29.7415 28.256 21.1436 34.3939 21.1314 34.3939C20.7295 35.5995 20.4616 36.793 20.2911 37.9378L20.3276 37.9256Z" fill="#C7794A"/>
<path d="M21.0583 48.6427C21.0583 48.6427 24.7606 58.0566 22.4223 61.6979C22.4223 61.6979 25.674 60.7114 26.7213 57.0823" fill="#C7794A"/>
<path d="M37.1216 43.0163V43.0285H37.1703C37.3164 41.6645 37.2555 40.5928 37.1216 39.7038C37.1094 39.7038 28.9499 37.463 20.1693 44.2463L20.5956 46.9986V46.889C20.5956 46.889 28.3775 41.0799 36.8049 42.9189C36.9145 42.9676 37.0241 42.9919 37.1216 43.0163Z" fill="#C7794A"/>
<path d="M36.8415 35.21C36.8415 35.21 29.2422 32.7743 20.0963 39.7281V39.716L20.0719 39.7281C19.9867 40.7755 19.9867 41.7497 20.0232 42.6509C20.0476 42.6266 28.3653 36.4034 36.8902 38.4007C36.744 37.5726 36.671 35.9285 36.8415 35.21Z" fill="#C7794A"/>
</svg>
