<svg width="166" height="113" viewBox="0 0 166 113" fill="none" xmlns="http://www.w3.org/2000/svg">
<path d="M0 94.1666V18.8333C0 13.8384 2.18616 9.04808 6.07754 5.51615C9.96892 1.98422 15.2468 0 20.75 0H145.25C150.753 0 156.031 1.98422 159.923 5.51615C163.814 9.04808 166 13.8384 166 18.8333V94.1666C166 99.1615 163.814 103.952 159.923 107.484C156.031 111.016 150.753 113 145.25 113H20.75C15.2468 113 9.96892 111.016 6.07754 107.484C2.18616 103.952 0 99.1615 0 94.1666ZM70.4463 29.1257C69.6706 28.6245 68.7579 28.3266 67.8082 28.2649C66.8584 28.2032 65.9082 28.3799 65.0618 28.7757C64.2153 29.1715 63.5052 29.7711 63.0093 30.5089C62.5133 31.2466 62.2506 32.0941 62.2501 32.9583V80.0416C62.2506 80.9058 62.5133 81.7532 63.0093 82.491C63.5052 83.2288 64.2153 83.8284 65.0618 84.2242C65.9082 84.62 66.8584 84.7967 67.8082 84.735C68.7579 84.6732 69.6706 84.3754 70.4463 83.8741L106.759 60.3325C107.431 59.897 107.979 59.322 108.358 58.6553C108.736 57.9887 108.933 57.2497 108.933 56.4999C108.933 55.7501 108.736 55.0112 108.358 54.3445C107.979 53.6779 107.431 53.1029 106.759 52.6674L70.4463 29.1257Z" fill="#CF9A5A"/>
</svg>
