<svg width="35" height="34" viewBox="0 0 35 34" fill="none" xmlns="http://www.w3.org/2000/svg">
<path d="M20.4888 16.2711L16.4883 14.4666C16.1392 14.31 15.8524 14.4856 15.8524 14.8592V18.258C15.8524 18.6317 16.1392 18.8073 16.4883 18.6506L20.487 16.8462C20.8379 16.6878 20.8379 16.4295 20.4888 16.2711ZM17.6336 0.0293617C8.18983 0.0293617 0.534363 7.42965 0.534363 16.5586C0.534363 25.6876 8.18983 33.0879 17.6336 33.0879C27.0774 33.0879 34.7328 25.6876 34.7328 16.5586C34.7328 7.42965 27.0774 0.0293617 17.6336 0.0293617ZM17.6336 23.2736C8.88093 23.2736 8.72775 22.5109 8.72775 16.5586C8.72775 10.6064 8.88093 9.84361 17.6336 9.84361C26.3863 9.84361 26.5395 10.6064 26.5395 16.5586C26.5395 22.5109 26.3863 23.2736 17.6336 23.2736Z" fill="#C7794A"/>
</svg>
